<?xml version="1.0" encoding="UTF-8"?>
<svg version="1.1" xmlns="http://www.w3.org/2000/svg" width="512" height="512">
<path d="M0 0 C168.96 0 337.92 0 512 0 C512 168.96 512 337.92 512 512 C343.04 512 174.08 512 0 512 C0 343.04 0 174.08 0 0 Z " fill="#FEFEFE" transform="translate(0,0)"/>
<path d="M0 0 C0 4.58709884 -2.54823433 8.3113785 -4.6875 12.28710938 C-6.21603872 15.34112973 -7.10580326 17.3799235 -6.5234375 20.79296875 C-5.65208216 22.62728346 -4.75397387 24.45058954 -3.78077984 26.23296547 C0.13799762 33.87525849 0.72130885 40.33757316 0.6628418 48.83740234 C0.67127501 50.19051514 0.68180892 51.5436162 0.69425964 52.896698 C0.72109455 56.5369743 0.71666753 60.17655944 0.70455909 63.81689024 C0.69738747 66.86402812 0.70595303 69.91104142 0.71446449 72.95816958 C0.73434492 80.14394145 0.72892281 87.32937995 0.70678711 94.51513672 C0.68436395 101.91994905 0.70210941 109.32389224 0.73983639 116.72862279 C0.77106678 123.10261038 0.77898946 129.47632885 0.76788265 135.8503834 C0.76140172 139.65061937 0.76336981 143.45035263 0.78720665 147.25053024 C0.80845217 150.81821962 0.80049257 154.38467785 0.77011299 157.95228958 C0.76077208 159.88234371 0.78097204 161.81247014 0.80206299 163.74243164 C0.73368075 168.83396001 0.65317162 172.00294977 -2.17253113 176.3163147 C-6 178 -6 178 -20 178 C-20 165.13 -20 152.26 -20 139 C-20.66 139 -21.32 139 -22 139 C-22.22558594 139.54527344 -22.45117188 140.09054687 -22.68359375 140.65234375 C-24.3914321 143.69807327 -26.67054446 146.05320785 -29.0625 148.5625 C-32.7092628 152.45783782 -36.21505303 156.40210162 -39.5625 160.5625 C-44.14197543 166.24336825 -48.90448133 171.77304931 -54 177 C-54.33 177 -54.66 177 -55 177 C-55.3007039 171.98749729 -55.51614735 166.98041904 -55.65917969 161.9609375 C-55.71887896 160.261113 -55.80028587 158.56188702 -55.90527344 156.86425781 C-56.43305315 148.0989751 -56.61750214 141.00979618 -50.88861084 133.93154907 C-48.84251501 131.67036222 -46.72427617 129.52208005 -44.50169373 127.43455505 C-42.25618405 125.28943904 -40.23240717 122.95961397 -38.1875 120.625 C-36.10802971 118.30983107 -34.02025238 116.0209164 -31.85546875 113.78515625 C-31.20191406 113.09292969 -30.54835937 112.40070313 -29.875 111.6875 C-29.29492188 111.09324219 -28.71484375 110.49898438 -28.1171875 109.88671875 C-26.81412482 108.03467251 -26.81412482 108.03467251 -26.9375 105.6953125 C-28.49939855 101.73314337 -31.1691338 99.19555253 -34.125 96.1875 C-35.31848511 94.9395445 -36.51120013 93.69085203 -37.703125 92.44140625 C-38.56260742 91.54832764 -38.56260742 91.54832764 -39.43945312 90.63720703 C-41.8281007 88.13121976 -44.11344089 85.5492799 -46.31469727 82.87768555 C-47.9252233 80.97210097 -47.9252233 80.97210097 -49.82104492 79.58154297 C-53.4796795 76.43313437 -55.14104808 73.57962408 -55.56542969 68.79150391 C-55.77649233 63.68925709 -55.61112034 58.60097489 -55.4375 53.5 C-55.402348 51.70578991 -55.37041582 49.91151368 -55.34179688 48.1171875 C-55.26505976 43.7431461 -55.14449443 39.37230618 -55 35 C-52.26505706 37.72134058 -49.54203163 40.44453145 -46.9140625 43.26953125 C-46.37942383 43.84405029 -45.84478516 44.41856934 -45.29394531 45.01049805 C-44.74319336 45.60515869 -44.19244141 46.19981934 -43.625 46.8125 C-43.0484668 47.43487549 -42.47193359 48.05725098 -41.87792969 48.69848633 C-36.15269101 54.89490148 -30.63393849 61.20280441 -25.296875 67.73828125 C-24.49088867 68.72481689 -23.68490234 69.71135254 -22.85449219 70.7277832 C-21.93651855 71.85253052 -21.93651855 71.85253052 -21 73 C-21.03450256 71.97215141 -21.03450256 71.97215141 -21.06970215 70.92353821 C-21.27381546 64.40819153 -21.39843365 57.89646011 -21.43784332 51.37792683 C-21.46080702 48.02591709 -21.52118982 44.68462625 -21.63427734 41.33374023 C-22.3953795 17.86642389 -22.3953795 17.86642389 -16.4765625 11.37255859 C-13.18469249 8.44652332 -9.66434399 6.10591721 -5.8059082 3.99398804 C-3.71678466 2.84411574 -1.85792707 1.49175959 0 0 Z " fill="#1E1E1C" transform="translate(254,125)"/>
<path d="M0 0 C5.37270103 3.96199182 10.6135513 8.06372444 15.80078125 12.265625 C18.08344434 14.11317891 18.08344434 14.11317891 21 16 C21.39872742 18.40444946 21.39872742 18.40444946 21.43237305 21.45947266 C21.46206429 23.17102036 21.46206429 23.17102036 21.49235535 24.91714478 C21.49874527 26.15362762 21.50513519 27.39011047 21.51171875 28.6640625 C21.53864555 30.5575795 21.53864555 30.5575795 21.56611633 32.48934937 C21.61120235 35.84642143 21.64344945 39.20312448 21.66955566 42.56036377 C21.69932615 45.98569073 21.74586835 49.41078481 21.79101562 52.8359375 C21.8761832 59.55718453 21.94443775 66.27844661 22 73 C22.85924072 71.9339856 22.85924072 71.9339856 23.73583984 70.84643555 C28.20684363 65.33455087 32.73622771 59.95653082 37.625 54.8125 C38.74308431 53.62323834 39.8602794 52.43314001 40.9765625 51.2421875 C41.76015137 50.4063916 41.76015137 50.4063916 42.55957031 49.55371094 C44.91915996 47.00855356 47.190176 44.39036356 49.4375 41.74609375 C51.53325253 39.40409029 53.77281523 37.2165468 56 35 C58.37070265 72.53285217 58.37070265 72.53285217 51.80566406 80.12231445 C49.53076436 82.16494498 47.19528482 84.01623124 44.67578125 85.74804688 C41.99091804 87.75387125 40.10018957 90.29966898 38.0625 92.9375 C35.59067538 96.04441449 33.07159989 99.02492529 30.375 101.9375 C27.79796056 104.59711004 27.79796056 104.59711004 28.0390625 106.84375 C29.42574645 109.95533349 31.65881056 112.14917746 34 114.5625 C38.46678675 119.29152472 42.67194174 124.1483365 46.734375 129.234375 C48.77794833 131.9265674 48.77794833 131.9265674 50.80688477 133.43945312 C54.40263303 136.6065842 56.12657918 139.33406582 56.56103516 144.10839844 C56.77574086 149.0778229 56.61135456 154.03178968 56.4375 159 C56.40234609 160.74603129 56.37041425 162.4921306 56.34179688 164.23828125 C56.26507829 168.4938806 56.1445255 172.74618562 56 177 C52.13419907 173.83467574 48.90337985 170.90123953 45.8125 166.9375 C42.46738462 162.75187502 39.01382622 158.74021109 35.375 154.8125 C34.91158203 154.31113525 34.44816406 153.80977051 33.97070312 153.29321289 C32.64715954 151.86211962 31.32358046 150.43105917 30 149 C28.59657953 147.46523689 27.19955041 145.92457348 25.8125 144.375 C25.26207031 143.76398438 24.71164062 143.15296875 24.14453125 142.5234375 C23 141 23 141 23 139 C22.34 139 21.68 139 21 139 C21 151.87 21 164.74 21 178 C7 178 7 178 3.17451477 176.31234741 C-0.25144322 171.09372888 0.15598103 166.11811982 0.20776367 160.00244141 C0.19798953 158.6664327 0.18568113 157.3304405 0.17103577 155.99447632 C0.1394311 152.36960501 0.14590003 148.7457308 0.16111541 145.12078905 C0.17028442 142.0848169 0.16055071 139.04902582 0.15077668 136.01306474 C0.12786359 128.83747923 0.13544132 121.66237395 0.1628418 114.48681641 C0.19053692 107.11742229 0.17141454 99.74924865 0.12796611 92.3799578 C0.09199264 86.03138449 0.08370626 79.68318399 0.09735852 73.33452356 C0.10534812 69.55281777 0.10386538 65.77179189 0.07649803 61.9901619 C-0.10879963 33.38998951 -0.10879963 33.38998951 6.69551086 22.7605896 C8.34072206 20.00741432 8.34072206 20.00741432 7.30168152 16.82705688 C5.89053431 13.76225696 4.43201336 10.74367787 2.875 7.75 C0 2.22009569 0 2.22009569 0 0 Z " fill="#1E1E1C" transform="translate(257,125)"/>
<path d="M0 0 C3.34572785 0.96650651 5.49753516 2.42106936 8.24215698 4.5210743 C19.20086735 12.68748926 29.91309089 12.32123317 43.11767578 12.13204956 C45.38168459 12.13584484 47.64568985 12.14404964 49.90966797 12.15643311 C55.81536398 12.17708042 61.71918646 12.13856738 67.62463379 12.08694458 C73.67181234 12.04481285 79.71883549 12.05971366 85.76611328 12.06954956 C97.59215972 12.08051266 109.41701389 12.02886142 121.24267578 11.93673706 C121.24267578 13.91673706 121.24267578 15.89673706 121.24267578 17.93673706 C120.0173111 17.92483841 118.79194641 17.91293976 117.52944946 17.90068054 C105.90912491 17.79513485 94.28981631 17.74859912 82.66900063 17.7579546 C76.6962054 17.76091737 70.72492075 17.74401094 64.75244141 17.67965698 C58.97459567 17.6181652 53.19892133 17.6115289 47.42084885 17.64090538 C45.23069874 17.64279026 43.04043819 17.62581601 40.85060501 17.58851051 C25.86270017 17.34970576 15.98432327 19.58882841 3.97061729 28.83396435 C2.05000529 30.05969942 0.48708118 30.58004327 -1.75732422 30.93673706 C-3.55322266 30.2116394 -3.55322266 30.2116394 -5.36669922 29.02267456 C-6.03958984 28.59083862 -6.71248047 28.15900269 -7.40576172 27.71408081 C-8.09927734 27.25130737 -8.79279297 26.78853394 -9.50732422 26.31173706 C-10.18537109 25.87216675 -10.86341797 25.43259644 -11.56201172 24.97970581 C-12.93264619 24.0911386 -14.29920633 23.1962551 -15.66162109 22.2951355 C-18.49148579 20.46086626 -21.38965463 18.74457002 -24.29736328 17.03683472 C-24.77915039 16.67380249 -25.2609375 16.31077026 -25.75732422 15.93673706 C-25.75732422 15.27673706 -25.75732422 14.61673706 -25.75732422 13.93673706 C-23.96899414 12.63986206 -23.96899414 12.63986206 -21.48779297 11.18673706 C-20.59898437 10.66079956 -19.71017578 10.13486206 -18.79443359 9.59298706 C-17.8540625 9.04642456 -16.91369141 8.49986206 -15.94482422 7.93673706 C-14.10470867 6.85386546 -12.2648539 5.77055057 -10.42529297 4.68673706 C-9.60311279 4.20720581 -8.78093262 3.72767456 -7.93383789 3.23361206 C-2.41399321 -0.05538569 -2.41399321 -0.05538569 0 0 Z " fill="#2F2F2D" transform="translate(322.75732421875,216.06326293945313)"/>
<path d="M0 0 C2.98046875 1.5390625 2.98046875 1.5390625 6.1875 3.625 C7.33021465 4.36017535 8.47345046 5.09454122 9.6171875 5.828125 C10.46555176 6.37823242 10.46555176 6.37823242 11.33105469 6.93945312 C14.57393377 9.0001709 17.93090391 10.87323307 21.26953125 12.7734375 C21.84058594 13.17820313 22.41164062 13.58296875 23 14 C23 14.66 23 15.32 23 16 C20.07649394 17.94900404 17.0898642 19.69659537 14.04394531 21.44360352 C10.9477337 23.2286791 8.02431403 24.98168075 5.1640625 27.13671875 C2.74437936 28.94169275 0.91812524 30.21325055 -2 31 C-6.80120221 29.64706007 -10.96055751 26.81720009 -14.67245483 23.50979614 C-23.71337874 16.57656413 -35.26408304 18.14667873 -46.0703125 18.1953125 C-48.32047951 18.18405242 -50.57063477 18.17016746 -52.82077026 18.15377808 C-58.71612818 18.1178375 -64.61096645 18.11735436 -70.50640869 18.12445068 C-76.53301203 18.12536555 -82.55942266 18.09247719 -88.5859375 18.0625 C-100.39067946 18.00872909 -112.19514904 17.99244499 -124 18 C-124 16.02 -124 14.04 -124 12 C-122.77463531 12.01189865 -121.54927063 12.0237973 -120.28677368 12.03605652 C-108.66644913 12.14160221 -97.04714053 12.18813794 -85.42632484 12.17878246 C-79.45352962 12.17581969 -73.48224497 12.19272612 -67.50976562 12.25708008 C-61.73191989 12.31857186 -55.95624555 12.32520816 -50.17817307 12.29583168 C-47.98802296 12.2939468 -45.7977624 12.31092105 -43.60792923 12.34822655 C-29.42224019 12.57424947 -20.17065939 10.81312228 -8.58724976 2.36079407 C-5.61921781 0.24190717 -3.73650511 -0.73949123 0 0 Z " fill="#2A2A28" transform="translate(192,216)"/>
<path d="M0 0 C2.29327525 1.44785148 3.34437719 2.79250293 5 5 C5.33 3.35 5.66 1.7 6 0 C6.99 0 7.98 0 9 0 C9.07436755 4.6081187 9.12870394 9.21588514 9.16479492 13.82446289 C9.17984622 15.39093107 9.20029207 16.95735736 9.22631836 18.52368164 C9.26286433 20.78021606 9.27976261 23.03619153 9.29296875 25.29296875 C9.30845261 25.98899704 9.32393646 26.68502533 9.33988953 27.40214539 C9.34139852 31.79946778 8.65533529 34.48571587 6 38 C2.18299562 41.35433718 -1.65461125 41.57496053 -6.5546875 41.4140625 C-10.71062473 40.7103415 -12.27630064 39.21256847 -15 36 C-15.875 32.6875 -15.875 32.6875 -16 30 C-14.68 30 -13.36 30 -12 30 C-11.690625 30.804375 -11.38125 31.60875 -11.0625 32.4375 C-10.23664655 34.89080405 -10.23664655 34.89080405 -9 36 C-6.50932826 36.27732802 -6.50932826 36.27732802 -3.625 36.3125 C-2.64789063 36.34988281 -1.67078125 36.38726562 -0.6640625 36.42578125 C2.08028915 36.23857649 2.08028915 36.23857649 3.83984375 34.30859375 C5.21627989 31.56962486 5.30779962 29.79759047 5.1875 26.75 C5.16042969 25.85796875 5.13335937 24.9659375 5.10546875 24.046875 C5.05326172 23.03367187 5.05326172 23.03367187 5 22 C4.360625 22.804375 3.72125 23.60875 3.0625 24.4375 C-0.86820773 27.72645953 -3.92463769 28.44756281 -9 28 C-12.7250515 26.27543912 -14.50187319 24.69737753 -16.875 21.375 C-18.40190889 16.79427333 -18.95529553 12.76895564 -18 8 C-13.62289464 0.58435361 -8.38958659 -1.23802377 0 0 Z " fill="#2B2B2A" transform="translate(219,323)"/>
<path d="M0 0 C2.93423195 1.79646854 4.47205355 2.9441071 6 6 C6.08471364 7.81341842 6.10721083 9.62994161 6.09765625 11.4453125 C6.09443359 12.52167969 6.09121094 13.59804688 6.08789062 14.70703125 C6.07951172 15.83496094 6.07113281 16.96289062 6.0625 18.125 C6.05798828 19.26066406 6.05347656 20.39632813 6.04882812 21.56640625 C6.03701615 24.37765638 6.02054507 27.1888023 6 30 C5.01 30 4.02 30 3 30 C2.505 27.525 2.505 27.525 2 25 C1.05125 25.804375 0.1025 26.60875 -0.875 27.4375 C-5.06647641 30.99114304 -5.06647641 30.99114304 -8.05859375 31.01953125 C-14.4318089 30.46488363 -14.4318089 30.46488363 -17.0625 28.3125 C-18.29737834 25.26646676 -18.47532236 23.25935332 -18 20 C-16.31945513 17.25001749 -14.82318833 16.25196721 -11.75390625 15.3125 C-6.7834226 14.22307893 -2.07609367 13.77930028 3 14 C2.71848913 12.68528432 2.42446661 11.37324233 2.125 10.0625 C1.96257812 9.33160156 1.80015625 8.60070312 1.6328125 7.84765625 C1.17038477 5.79299706 1.17038477 5.79299706 -1 5 C-3.10854036 4.7647268 -3.10854036 4.7647268 -5.4375 4.75 C-6.61119141 4.71132813 -6.61119141 4.71132813 -7.80859375 4.671875 C-10.53677498 5.08037272 -11.3441611 5.83272461 -13 8 C-13.33 8.99 -13.66 9.98 -14 11 C-14.99 11 -15.98 11 -17 11 C-16.83553257 6.72384683 -16.64219154 4.64219154 -13.5625 1.5625 C-8.90989139 -0.47811781 -5.00785404 -0.85133519 0 0 Z " fill="#282827" transform="translate(375,323)"/>
<path d="M0 0 C32.34 0 64.68 0 98 0 C98 1.32 98 2.64 98 4 C65 4 32 4 -2 4 C-1.34 2.68 -0.68 1.36 0 0 Z " fill="#1C1C1A" transform="translate(346,229)"/>
<path d="M0 0 C1.32 0 2.64 0 4 0 C4 7.59 4 15.18 4 23 C12.52089741 23.00555127 12.52089741 23.00555127 15.48828125 19.49609375 C16.09027344 18.48675781 16.69226563 17.47742188 17.3125 16.4375 C19.17578125 13.37109375 19.17578125 13.37109375 21 11 C22.32 11 23.64 11 25 11 C23.60580561 15.46142206 21.14534646 18.45177554 18.14453125 21.9375 C16.78720962 23.96103705 16.78720962 23.96103705 17.1015625 26.42578125 C18.16176721 29.46349821 19.63603284 31.61498527 21.5625 34.1875 C25 38.80080483 25 38.80080483 25 41 C22.703125 40.84375 22.703125 40.84375 20 40 C18.296875 37.53125 18.296875 37.53125 16.75 34.5 C14.45103114 30.36781717 14.45103114 30.36781717 10.55078125 28.05078125 C7.80395019 27.72868038 7.80395019 27.72868038 4 28 C4 32.29 4 36.58 4 41 C2.68 41 1.36 41 0 41 C0 27.47 0 13.94 0 0 Z " fill="#454544" transform="translate(131,312)"/>
<path d="M0 0 C3.0625 1.3125 3.0625 1.3125 5 4 C5.64071834 7.76994094 5.63604662 11.22956148 5 15 C3.1031157 17.65563802 1.85514945 18.57242527 -1 20 C-5.96258946 20.37453505 -9.04413742 20.14142028 -13 17 C-14.44985718 12.65042845 -14.63172192 8.54096577 -14 4 C-10.4291887 -0.83787338 -5.57586855 -0.93771388 0 0 Z " fill="#FAFAFA" transform="translate(219,327)"/>
<path d="M0 0 C1.32 0 2.64 0 4 0 C4.0093457 0.64549805 4.01869141 1.29099609 4.02832031 1.95605469 C4.08209101 4.88813944 4.1657234 7.81864008 4.25 10.75 C4.26417969 11.76578125 4.27835937 12.7815625 4.29296875 13.828125 C4.39674807 19.59736186 4.39674807 19.59736186 6.828125 24.671875 C10.06006388 26.6482405 12.29442427 26.52936796 16 26 C19.2058573 23.63778936 20.25034799 21.81784244 21 18 C21.14033578 16.560265 21.24416857 15.11662851 21.31640625 13.671875 C21.35830078 12.87265625 21.40019531 12.0734375 21.44335938 11.25 C21.48267578 10.425 21.52199219 9.6 21.5625 8.75 C21.60568359 7.90953125 21.64886719 7.0690625 21.69335938 6.203125 C21.79908543 4.13559329 21.90001295 2.06781719 22 0 C23.32 0 24.64 0 26 0 C26 9.9 26 19.8 26 30 C24.68 30 23.36 30 22 30 C21.505 27.525 21.505 27.525 21 25 C20.34 25.804375 19.68 26.60875 19 27.4375 C15.01873146 30.83816688 13.19577135 31 8 31 C4.64773768 29.73358979 3.369418 28.54791083 1.375 25.58984375 C-0.55469578 20.55180278 -0.32188998 15.96614043 -0.1875 10.625 C-0.16719727 9.09166016 -0.16719727 9.09166016 -0.14648438 7.52734375 C-0.11130217 5.01767951 -0.06207539 2.5091191 0 0 Z " fill="#4D4D4D" transform="translate(274,323)"/>
<path d="M0 0 C1.32 0 2.64 0 4 0 C4.33 1.65 4.66 3.3 5 5 C5.61875 4.175 6.2375 3.35 6.875 2.5 C9.42568693 -0.05068693 11.42743595 -0.46503445 15 -0.625 C18.8573352 -0.43529499 19.85459551 -0.10979523 23.0625 2.3125 C25.7459208 6.03466434 26.12348142 8.6377141 26.09765625 13.10546875 C26.09443359 14.08837891 26.09121094 15.07128906 26.08789062 16.08398438 C26.07951172 17.10814453 26.07113281 18.13230469 26.0625 19.1875 C26.05798828 20.22326172 26.05347656 21.25902344 26.04882812 22.32617188 C26.0370401 24.88417266 26.02058515 27.44205733 26 30 C24.68 30 23.36 30 22 30 C21.505 18.12 21.505 18.12 21 6 C17.30201992 4.76733997 13.84478297 4.41863161 10 5 C7.56880377 6.87015094 6.35930827 8.28138345 5 11 C4.84932786 12.4465242 4.75138964 13.8987934 4.68359375 15.3515625 C4.64169922 16.20234375 4.59980469 17.053125 4.55664062 17.9296875 C4.51732422 18.81914062 4.47800781 19.70859375 4.4375 20.625 C4.37272461 21.97078125 4.37272461 21.97078125 4.30664062 23.34375 C4.20043139 25.56234283 4.09838806 27.7810488 4 30 C2.68 30 1.36 30 0 30 C0 20.1 0 10.2 0 0 Z " fill="#2D2D2C" transform="translate(170,323)"/>
<path d="M0 0 C0.99 0 1.98 0 3 0 C3 7.59 3 15.18 3 23 C11.57187175 22.99958913 11.57187175 22.99958913 14.70703125 19.27734375 C15.74923828 17.62412109 15.74923828 17.62412109 16.8125 15.9375 C18.95703125 12.58984375 18.95703125 12.58984375 21 10 C22.32 10 23.64 10 25 10 C23.38325319 13.42946293 21.42402323 16.56263052 19.375 19.75 C18.74335938 20.73484375 18.11171875 21.7196875 17.4609375 22.734375 C16.97882813 23.48203125 16.49671875 24.2296875 16 25 C16.6496875 25.99902344 17.299375 26.99804688 17.96875 28.02734375 C18.81261881 29.33065225 19.65636236 30.63404185 20.5 31.9375 C20.92925781 32.59685547 21.35851562 33.25621094 21.80078125 33.93554688 C25 38.88671875 25 38.88671875 25 40 C22.73828125 40.3359375 22.73828125 40.3359375 20 40 C17.98046875 37.6640625 17.98046875 37.6640625 16.1875 34.625 C15.28064453 33.12839844 15.28064453 33.12839844 14.35546875 31.6015625 C13 29 13 29 13 27 C9.7 27 6.4 27 3 27 C3 31.29 3 35.58 3 40 C2.01 40 1.02 40 0 40 C0 26.8 0 13.6 0 0 Z " fill="#282828" transform="translate(245,313)"/>
<path d="M0 0 C0.99 0 1.98 0 3 0 C3.33 2.31 3.66 4.62 4 7 C4.49306641 6.24203125 4.49306641 6.24203125 4.99609375 5.46875 C8.75141795 0.3395267 8.75141795 0.3395267 12.2265625 -0.60546875 C16.12623222 -0.74241367 18.49575163 -0.2789459 21.9375 1.625 C26.72689389 7.14005963 26.25306924 13.46911227 26.125 20.375 C26.11597656 21.30183594 26.10695313 22.22867187 26.09765625 23.18359375 C26.07422937 25.45600077 26.04142748 27.7278618 26 30 C24.68 30 23.36 30 22 30 C21.98541748 29.34926514 21.97083496 28.69853027 21.95581055 28.02807617 C21.88135451 25.08061694 21.78468734 22.13429358 21.6875 19.1875 C21.66494141 18.16333984 21.64238281 17.13917969 21.61914062 16.08398438 C21.5659668 14.60961914 21.5659668 14.60961914 21.51171875 13.10546875 C21.48553467 12.19949951 21.45935059 11.29353027 21.43237305 10.36010742 C20.92479283 7.58948182 20.22232499 6.68030277 18 5 C15.86391227 4.45281749 15.86391227 4.45281749 13.5625 4.5 C12.80066406 4.4690625 12.03882813 4.438125 11.25390625 4.40625 C8.82521937 4.8739186 8.82521937 4.8739186 6.76171875 6.88671875 C4.25407797 11.3181815 4.32795618 15.29850033 4.25 20.3125 C4.22035156 21.24384766 4.19070313 22.17519531 4.16015625 23.13476562 C4.08974096 25.42326265 4.03690786 27.71075809 4 30 C2.68 30 1.36 30 0 30 C0 20.1 0 10.2 0 0 Z " fill="#282828" transform="translate(306,323)"/>
<path d="M0 0 C1.32 0 2.64 0 4 0 C4 2.31 4 4.62 4 7 C7.3 7 10.6 7 14 7 C14 8.32 14 9.64 14 11 C10.7 11 7.4 11 4 11 C4.14014682 14.3128323 4.28683615 17.62514408 4.4375 20.9375 C4.47681641 21.88302734 4.51613281 22.82855469 4.55664062 23.80273438 C4.61948242 25.15141602 4.61948242 25.15141602 4.68359375 26.52734375 C4.72025146 27.35999756 4.75690918 28.19265137 4.79467773 29.05053711 C4.79367103 31.00338858 4.79367103 31.00338858 6 32 C7.34747084 32.23075082 8.70377565 32.41153063 10.0625 32.5625 C11.361875 32.706875 12.66125 32.85125 14 33 C14 34.32 14 35.64 14 37 C12.41906283 37.1357675 10.83473048 37.23234745 9.25 37.3125 C8.36828125 37.37050781 7.4865625 37.42851562 6.578125 37.48828125 C4 37 4 37 1.6875 35.15625 C-0.79174274 30.51914783 -0.43044713 26.35453417 -0.25 21.1875 C-0.23195313 20.20845703 -0.21390625 19.22941406 -0.1953125 18.22070312 C-0.14832887 15.81279229 -0.08265694 13.40690665 0 11 C-1.65 11 -3.3 11 -5 11 C-5 9.68 -5 8.36 -5 7 C-3.35 7 -1.7 7 0 7 C0 4.69 0 2.38 0 0 Z " fill="#262625" transform="translate(340,316)"/>
<path d="M0 0 C0.99 0 1.98 0 3 0 C3 7.59 3 15.18 3 23 C5.31 23 7.62 23 10 23 C9.67 23.99 9.34 24.98 9 26 C7.35 26 5.7 26 4 26 C4 30.62 4 35.24 4 40 C2.68 40 1.36 40 0 40 C0 26.8 0 13.6 0 0 Z " fill="#272727" transform="translate(131,313)"/>
<path d="M0 0 C-0.52770599 3.79948314 -1.37140179 6.16920193 -4 9 C-6.84214068 9.94738023 -8.67608391 10.13460559 -11.625 10.125 C-12.81996094 10.12886719 -12.81996094 10.12886719 -14.0390625 10.1328125 C-16 10 -16 10 -17 9 C-17.25 6.0625 -17.25 6.0625 -17 3 C-11.81485923 -0.45676052 -6.08514218 -0.12418658 0 0 Z " fill="#F1F1F0" transform="translate(378,340)"/>
<path d="M0 0 C1.32 0 2.64 0 4 0 C4 9.9 4 19.8 4 30 C2.68 30 1.36 30 0 30 C0 20.1 0 10.2 0 0 Z " fill="#2D2D2D" transform="translate(160,323)"/>
<path d="M0 0 C0.99 0 1.98 0 3 0 C3 13.2 3 26.4 3 40 C2.01 40 1.02 40 0 40 C0 26.8 0 13.6 0 0 Z " fill="#1C1C1B" transform="translate(245,313)"/>
<path d="M0 0 C0.33 0.99 0.66 1.98 1 3 C0.37351563 3.19335938 -0.25296875 3.38671875 -0.8984375 3.5859375 C-1.71570313 3.84632813 -2.53296875 4.10671875 -3.375 4.375 C-4.18710938 4.63023437 -4.99921875 4.88546875 -5.8359375 5.1484375 C-8.16459185 5.89854283 -8.16459185 5.89854283 -10 8 C-10.8267699 13.96992292 -10.26106648 18.83664475 -7 24 C-8.65 24 -10.3 24 -12 24 C-15.25901312 18.8398959 -16.19381211 13.95966045 -15 8 C-11.06287691 1.32976699 -7.61053914 -0.14093591 0 0 Z " fill="#2C2C2B" transform="translate(216,323)"/>
<path d="M0 0 C0.99 0 1.98 0 3 0 C4.3302664 9.97699803 4.09502917 19.95614824 4 30 C2.68 30 1.36 30 0 30 C0 20.1 0 10.2 0 0 Z " fill="#242424" transform="translate(306,323)"/>
<path d="M0 0 C1.32 0 2.64 0 4 0 C4 2.31 4 4.62 4 7 C7.3 7 10.6 7 14 7 C14 8.32 14 9.64 14 11 C10.7 11 7.4 11 4 11 C4 16.94 4 22.88 4 29 C3.67 29 3.34 29 3 29 C2.67 22.73 2.34 16.46 2 10 C0.02 9.34 -1.96 8.68 -4 8 C-4.33 8.99 -4.66 9.98 -5 11 C-5 9.68 -5 8.36 -5 7 C-3.35 7 -1.7 7 0 7 C0 4.69 0 2.38 0 0 Z " fill="#373736" transform="translate(340,316)"/>
<path d="M0 0 C2 1 2 1 3 3 C2.01 3.495 2.01 3.495 1 4 C1 5.98 1 7.96 1 10 C3.97 10.33 6.94 10.66 10 11 C10 11.99 10 12.98 10 14 C6.51238829 15.74380586 2.70542291 14.86867057 -1 14 C-3.72466785 11.77072631 -3.93171915 10.46821157 -4.4375 7 C-3.90883564 3.37487294 -2.79352638 2.26974019 0 0 Z " fill="#2E2E2D" transform="translate(361,339)"/>
<path d="M0 0 C0.66 0.66 1.32 1.32 2 2 C1.67 2.99 1.34 3.98 1 5 C0.24074219 4.96519531 -0.51851563 4.93039062 -1.30078125 4.89453125 C-2.29464844 4.86746094 -3.28851563 4.84039062 -4.3125 4.8125 C-5.29863281 4.77769531 -6.28476562 4.74289062 -7.30078125 4.70703125 C-10.00532724 4.77125075 -10.00532724 4.77125075 -11.79296875 6.32421875 C-13.19918733 8.10111818 -13.19918733 8.10111818 -14 11 C-14.99 11 -15.98 11 -17 11 C-16.83553257 6.72384683 -16.64219154 4.64219154 -13.5625 1.5625 C-9.01020352 -0.43412126 -4.9150384 -0.76023975 0 0 Z " fill="#353535" transform="translate(375,323)"/>
<path d="M0 0 C3.29582209 0.53195725 5.00634161 1.93100841 7.2265625 4.359375 C7.5565625 5.349375 7.8865625 6.339375 8.2265625 7.359375 C6.4140625 8.046875 6.4140625 8.046875 4.2265625 8.359375 C3.77796875 7.88113281 3.329375 7.40289062 2.8671875 6.91015625 C0.26342098 4.44897694 -2.1704546 4.83226144 -5.609375 4.921875 C-8.09488348 5.22064385 -8.09488348 5.22064385 -10.3359375 7.859375 C-10.8103125 8.684375 -11.2846875 9.509375 -11.7734375 10.359375 C-12.4334375 10.029375 -13.0934375 9.699375 -13.7734375 9.359375 C-7.58266738 -0.24699242 -7.58266738 -0.24699242 0 0 Z " fill="#313131" transform="translate(322.7734375,322.640625)"/>
<path d="M0 0 C1.97909398 -0.02686553 3.95828971 -0.04633375 5.9375 -0.0625 C7.03964844 -0.07410156 8.14179688 -0.08570313 9.27734375 -0.09765625 C12 0 12 0 13 1 C13.04092937 3.33297433 13.04241723 5.66705225 13 8 C12.01 8 11.02 8 10 8 C10 6.35 10 4.7 10 3 C9.34 3 8.68 3 8 3 C8 4.65 8 6.3 8 8 C7.01 8 6.02 8 5 8 C5 6.35 5 4.7 5 3 C4.34 3 3.68 3 3 3 C3 4.65 3 6.3 3 8 C2.01 8 1.02 8 0 8 C0 5.36 0 2.72 0 0 Z " fill="#333332" transform="translate(198,373)"/>
<path d="M0 0 C0.66 0 1.32 0 2 0 C2.84843174 6.56699525 3.12561146 12.94550593 3.0625 19.5625 C3.05798828 20.47580078 3.05347656 21.38910156 3.04882812 22.33007812 C3.0371874 24.55345738 3.02083851 26.77669121 3 29 C2.01 29 1.02 29 0 29 C0 19.43 0 9.86 0 0 Z " fill="#222222" transform="translate(171,324)"/>
<path d="M0 0 C0.99 0 1.98 0 3 0 C3 9.24 3 18.48 3 28 C2.34 28 1.68 28 1 28 C0.17961409 21.598406 -0.12754513 15.38697499 -0.0625 8.9375 C-0.05798828 8.07189453 -0.05347656 7.20628906 -0.04882812 6.31445312 C-0.03719913 4.20960461 -0.01927073 2.10479242 0 0 Z " fill="#1E1E1E" transform="translate(296,324)"/>
<path d="M0 0 C0.99 0 1.98 0 3 0 C3 3.63 3 7.26 3 11 C-0.375 11.125 -0.375 11.125 -4 11 C-4.66 10.34 -5.32 9.68 -6 9 C-5.625 6.375 -5.625 6.375 -5 4 C-4.0409375 3.8453125 -4.0409375 3.8453125 -3.0625 3.6875 C-2.381875 3.460625 -1.70125 3.23375 -1 3 C-0.67 2.01 -0.34 1.02 0 0 Z " fill="#474747" transform="translate(271,370)"/>
<path d="M0 0 C1.134375 0.020625 2.26875 0.04125 3.4375 0.0625 C3.4375 3.3625 3.4375 6.6625 3.4375 10.0625 C2.7775 10.0625 2.1175 10.0625 1.4375 10.0625 C1.4375 9.0725 1.4375 8.0825 1.4375 7.0625 C0.2309375 7.3409375 0.2309375 7.3409375 -1 7.625 C-1.845625 7.769375 -2.69125 7.91375 -3.5625 8.0625 C-4.5625 7.0625 -4.5625 7.0625 -4.6875 4.0625 C-4.50687014 -0.27261656 -4.44520527 0.07798606 0 0 Z " fill="#262625" transform="translate(236.5625,372.9375)"/>
<path d="M0 0 C1.32 0 2.64 0 4 0 C4.309375 0.804375 4.61875 1.60875 4.9375 2.4375 C5.76335345 4.89080405 5.76335345 4.89080405 7 6 C8.34747084 6.23075082 9.70377565 6.41153063 11.0625 6.5625 C12.361875 6.706875 13.66125 6.85125 15 7 C15 7.33 15 7.66 15 8 C13.35 8 11.7 8 10 8 C10 8.66 10 9.32 10 10 C12.31 10 14.62 10 17 10 C17 10.33 17 10.66 17 11 C7.33716831 11.85934274 7.33716831 11.85934274 3.4375 8.875 C0.79209034 5.75477323 0.1876595 4.03467916 0 0 Z " fill="#3B3B3B" transform="translate(203,353)"/>
<path d="M0 0 C0.99 0 1.98 0 3 0 C3 6.6 3 13.2 3 20 C2.01 20.33 1.02 20.66 0 21 C0 14.07 0 7.14 0 0 Z " fill="#1C1C1C" transform="translate(274,323)"/>
<path d="M0 0 C2.375 -0.125 2.375 -0.125 5 0 C7 2 7 2 7.125 5.125 C7.08375 6.07375 7.0425 7.0225 7 8 C4.69 8 2.38 8 0 8 C-0.79953138 4.71303767 -1.09658936 3.28976808 0 0 Z " fill="#383837" transform="translate(214,373)"/>
<path d="M0 0 C1.32 0 2.64 0 4 0 C4.33 1.65 4.66 3.3 5 5 C6.65 4.67 8.3 4.34 10 4 C8.07423885 6.43929746 6.19909405 8.80090595 4 11 C3 10 3 10 2.90234375 7.93359375 C2.91974609 6.69802734 2.91974609 6.69802734 2.9375 5.4375 C2.94652344 4.61121094 2.95554688 3.78492188 2.96484375 2.93359375 C2.97644531 2.29550781 2.98804688 1.65742188 3 1 C2.34 1 1.68 1 1 1 C1 10.57 1 20.14 1 30 C0.67 30 0.34 30 0 30 C0 20.1 0 10.2 0 0 Z " fill="#5E5E5E" transform="translate(170,323)"/>
<path d="M0 0 C0.99 0 1.98 0 3 0 C3 1.65 3 3.3 3 5 C3.99 5 4.98 5 6 5 C6 3.35 6 1.7 6 0 C6.99 0 7.98 0 9 0 C9 2.64 9 5.28 9 8 C2.84765625 8.09765625 2.84765625 8.09765625 1 8 C0 7 0 7 -0.0625 3.4375 C-0.041875 2.303125 -0.02125 1.16875 0 0 Z " fill="#444443" transform="translate(242,373)"/>
<path d="M0 0 C4.70588235 0.70588235 4.70588235 0.70588235 6 2 C6.04063832 3.66617115 6.042721 5.33388095 6 7 C3.125 7.625 3.125 7.625 0 8 C-0.66 7.34 -1.32 6.68 -2 6 C-1.44444444 1.44444444 -1.44444444 1.44444444 0 0 Z " fill="#515150" transform="translate(278,373)"/>
<path d="M0 0 C1.99954746 -0.04254356 4.00041636 -0.04080783 6 0 C7 1 7 1 7.0625 4.0625 C7.041875 5.031875 7.02125 6.00125 7 7 C5.0085944 7.38133299 3.00720923 7.71325582 1 8 C0 7 0 7 -0.0625 3.4375 C-0.041875 2.303125 -0.02125 1.16875 0 0 Z " fill="#595957" transform="translate(286,373)"/>
<path d="M0 0 C2.5 0.125 2.5 0.125 3.5 1.125 C3.54092937 3.45797433 3.54241723 5.79205225 3.5 8.125 C1.19 8.125 -1.12 8.125 -3.5 8.125 C-3.54241723 5.79205225 -3.54092937 3.45797433 -3.5 1.125 C-2.5 0.125 -2.5 0.125 0 0 Z " fill="#3E3E3E" transform="translate(188.5,372.875)"/>
<path d="M0 0 C1.2065625 0.0309375 1.2065625 0.0309375 2.4375 0.0625 C3.41870464 3.11513664 3.41870464 5.00986336 2.4375 8.0625 C0.77138095 8.105221 -0.89632885 8.10313832 -2.5625 8.0625 C-3.5625 7.0625 -3.5625 7.0625 -3.6875 4.0625 C-3.52180824 0.08589776 -3.52180824 0.08589776 0 0 Z " fill="#3E3E3E" transform="translate(326.5625,372.9375)"/>
<path d="M0 0 C2.5 0.125 2.5 0.125 3.5 1.125 C3.54080783 3.12458364 3.54254356 5.12545254 3.5 7.125 C1.5085944 7.50633299 -0.49279077 7.83825582 -2.5 8.125 C-3.5 7.125 -3.5 7.125 -3.625 4.125 C-3.46033403 0.1730167 -3.46033403 0.1730167 0 0 Z " fill="#60605E" transform="translate(311.5,372.875)"/>
<path d="M0 0 C2.5 0.125 2.5 0.125 3.5 1.125 C3.54080783 3.12458364 3.54254356 5.12545254 3.5 7.125 C1.5085944 7.50633299 -0.49279077 7.83825582 -2.5 8.125 C-3.5 7.125 -3.5 7.125 -3.625 4.125 C-3.46033403 0.1730167 -3.46033403 0.1730167 0 0 Z " fill="#525250" transform="translate(256.5,372.875)"/>
<path d="M0 0 C0.33 0.66 0.66 1.32 1 2 C-1.78016426 5.38832519 -3.78438662 7.29037864 -8.125 7.875 C-12 8 -12 8 -15 7 C-14.67 6.01 -14.34 5.02 -14 4 C-13.01 4 -12.02 4 -11 4 C-6.42125945 3.58375086 -3.43520646 3.16038995 0 0 Z " fill="#343433" transform="translate(294,346)"/>
<path d="M0 0 C1.33998047 0.06960938 1.33998047 0.06960938 2.70703125 0.140625 C3.60808594 0.17671875 4.50914062 0.2128125 5.4375 0.25 C6.46810547 0.31960938 6.46810547 0.31960938 7.51953125 0.390625 C7.51953125 3.390625 7.51953125 3.390625 6.51953125 6.390625 C6.18953125 6.060625 5.85953125 5.730625 5.51953125 5.390625 C3.67061179 5.15698619 1.81465094 4.97758865 -0.04296875 4.828125 C-1.05488281 4.74433594 -2.06679687 4.66054688 -3.109375 4.57421875 C-4.28306641 4.48333984 -4.28306641 4.48333984 -5.48046875 4.390625 C-3.17521711 0.50003419 -3.17521711 0.50003419 0 0 Z " fill="#262626" transform="translate(182.48046875,322.609375)"/>
<path d="M0 0 C1.32 0.33 2.64 0.66 4 1 C2.19587357 4.26460973 1.16605307 5.88929795 -2 8 C-4.26171875 8.1953125 -4.26171875 8.1953125 -6.6875 8.125 C-7.89986328 8.09792969 -7.89986328 8.09792969 -9.13671875 8.0703125 C-10.05904297 8.03550781 -10.05904297 8.03550781 -11 8 C-11 7.34 -11 6.68 -11 6 C-10.37351563 5.81824219 -9.74703125 5.63648438 -9.1015625 5.44921875 C-7.87566406 5.07216797 -7.87566406 5.07216797 -6.625 4.6875 C-5.81289062 4.44386719 -5.00078125 4.20023437 -4.1640625 3.94921875 C-1.66815371 3.08631815 -1.66815371 3.08631815 0 0 Z " fill="#2C2C2C" transform="translate(224,355)"/>
<path d="M0 0 C8.44646925 6.15034169 8.44646925 6.15034169 12 10 C9.33333333 10 6.66666667 10 4 10 C3.32845067 8.71086513 2.66291141 7.41859796 2 6.125 C1.62875 5.40570313 1.2575 4.68640625 0.875 3.9453125 C0 2 0 2 0 0 Z " fill="#323232" transform="translate(257,125)"/>
<path d="M0 0 C0 3.23655184 -0.6550847 4.78752639 -2 7.6875 C-2.556875 8.89986328 -2.556875 8.89986328 -3.125 10.13671875 C-3.41375 10.75160156 -3.7025 11.36648437 -4 12 C-4.33 11.01 -4.66 10.02 -5 9 C-6.65 9 -8.3 9 -10 9 C-6.83047153 5.73991357 -3.60062011 2.77762123 0 0 Z " fill="#313131" transform="translate(254,125)"/>
<path d="M0 0 C0.66 0 1.32 0 2 0 C2.33 4.95 2.66 9.9 3 15 C2.01 15 1.02 15 0 15 C0 10.05 0 5.1 0 0 Z " fill="#1D1D1B" transform="translate(171,324)"/>
<path d="M0 0 C2.56946287 1.28473143 4.14021888 2.81956696 6 5 C6.33 5.99 6.66 6.98 7 8 C6.43796875 7.69320313 5.8759375 7.38640625 5.296875 7.0703125 C2.93653066 5.97042415 0.79534438 5.39904149 -1.75 4.875 C-2.54921875 4.70742188 -3.3484375 4.53984375 -4.171875 4.3671875 C-4.77515625 4.24601562 -5.3784375 4.12484375 -6 4 C-2.60606061 0 -2.60606061 0 0 0 Z " fill="#454545" transform="translate(218,323)"/>
<path d="M0 0 C0.99 0 1.98 0 3 0 C3 3.63 3 7.26 3 11 C2.01 11 1.02 11 0 11 C0 7.37 0 3.74 0 0 Z " fill="#494949" transform="translate(181,370)"/>
<path d="M0 0 C1.23556641 0.01740234 1.23556641 0.01740234 2.49609375 0.03515625 C3.32238281 0.04417969 4.14867187 0.05320312 5 0.0625 C5.63808594 0.07410156 6.27617187 0.08570313 6.93359375 0.09765625 C6.93359375 1.08765625 6.93359375 2.07765625 6.93359375 3.09765625 C4.14496368 4.49197129 2.01280507 4.35425719 -1.06640625 4.09765625 C-1.72640625 3.10765625 -2.38640625 2.11765625 -3.06640625 1.09765625 C-2.06640625 0.09765625 -2.06640625 0.09765625 0 0 Z " fill="#3B3B3B" transform="translate(364.06640625,349.90234375)"/>
<path d="M0 0 C0.99 0.33 1.98 0.66 3 1 C3 4.3 3 7.6 3 11 C2.01 11 1.02 11 0 11 C0 7.37 0 3.74 0 0 Z " fill="#636363" transform="translate(318,370)"/>
<path d="M0 0 C0.99 0.33 1.98 0.66 3 1 C3 4.3 3 7.6 3 11 C2.01 11 1.02 11 0 11 C0 7.37 0 3.74 0 0 Z " fill="#1C1C1C" transform="translate(131,342)"/>
<path d="M0 0 C1.98 0 3.96 0 6 0 C6.33 1.32 6.66 2.64 7 4 C5.68 3.67 4.36 3.34 3 3 C2.67 4.65 2.34 6.3 2 8 C1.34 8 0.68 8 0 8 C0 5.36 0 2.72 0 0 Z " fill="#2C2C2A" transform="translate(223,373)"/>
<path d="M0 0 C2.40072955 2.88087546 4.47291037 5.56404834 6 9 C4.35 9 2.7 9 1 9 C0.01 7.02 -0.98 5.04 -2 3 C-1.34 3 -0.68 3 0 3 C0 2.01 0 1.02 0 0 Z " fill="#313131" transform="translate(264,344)"/>
<path d="M0 0 C1.98 0 3.96 0 6 0 C6 1.32 6 2.64 6 4 C5.01 3.67 4.02 3.34 3 3 C2.67 4.65 2.34 6.3 2 8 C1.34 8 0.68 8 0 8 C0 5.36 0 2.72 0 0 Z " fill="#262624" transform="translate(299,373)"/>
<path d="M0 0 C2.25245881 2.68841859 3.88213958 4.64641875 5 8 C2.625 7.75 2.625 7.75 0 7 C-1.3125 4.9375 -1.3125 4.9375 -2 3 C-1.34 2.01 -0.68 1.02 0 0 Z " fill="#343434" transform="translate(151,345)"/>
<path d="M0 0 C2.97 0 5.94 0 9 0 C9 0.99 9 1.98 9 3 C5.7 3 2.4 3 -1 3 C-0.67 2.01 -0.34 1.02 0 0 Z " fill="#232322" transform="translate(345,324)"/>
<path d="M0 0 C1.32 0 2.64 0 4 0 C2.70700306 2.88437779 1.34058637 4.87219421 -1 7 C-1.99 6.34 -2.98 5.68 -4 5 C-2.25 2.5 -2.25 2.5 0 0 Z " fill="#373737" transform="translate(266,323)"/>
<path d="M0 0 C1.32 0 2.64 0 4 0 C4 2.31 4 4.62 4 7 C2.68 7 1.36 7 0 7 C0 4.69 0 2.38 0 0 Z " fill="#3C3C3C" transform="translate(160,313)"/>
<path d="M0 0 C1.9375 0.375 1.9375 0.375 4 1 C4.33 1.66 4.66 2.32 5 3 C4.34 3 3.68 3 3 3 C3 4.65 3 6.3 3 8 C2.01 8 1.02 8 0 8 C0 5.36 0 2.72 0 0 Z " fill="#464645" transform="translate(198,373)"/>
<path d="M0 0 C1.65 0.33 3.3 0.66 5 1 C5 1.66 5 2.32 5 3 C1.04 4.98 1.04 4.98 -3 7 C-2.67 5.35 -2.34 3.7 -2 2 C-1.34 2 -0.68 2 0 2 C0 1.34 0 0.68 0 0 Z " fill="#272725" transform="translate(210,229)"/>
<path d="M0 0 C0.66 1.32 1.32 2.64 2 4 C1.34 4 0.68 4 0 4 C0 4.66 0 5.32 0 6 C-0.66 6 -1.32 6 -2 6 C-2 8.64 -2 11.28 -2 14 C-2.33 14 -2.66 14 -3 14 C-3.08153933 12.41753293 -3.13943557 10.83383727 -3.1875 9.25 C-3.22230469 8.36828125 -3.25710937 7.4865625 -3.29296875 6.578125 C-2.94923684 3.55328417 -1.99772541 2.24416398 0 0 Z " fill="#363635" transform="translate(204,327)"/>
<path d="M0 0 C2.64 0 5.28 0 8 0 C7.67 0.99 7.34 1.98 7 3 C4.69 3 2.38 3 0 3 C0 2.01 0 1.02 0 0 Z " fill="#212121" transform="translate(367,323)"/>
<path d="M0 0 C0.33 1.98 0.66 3.96 1 6 C-0.65 6 -2.3 6 -4 6 C-4.33 4.68 -4.66 3.36 -5 2 C-2 0 -2 0 0 0 Z " fill="#5D5D5C" transform="translate(218,375)"/>
<path d="M0 0 C0.66 0 1.32 0 2 0 C1.67 1.98 1.34 3.96 1 6 C2.32 6.33 3.64 6.66 5 7 C3.34385343 7.38218767 1.67542976 7.71395102 0 8 C-1 7 -1 7 -1.125 4 C-1 1 -1 1 0 0 Z " fill="#262625" transform="translate(254,373)"/>
<path d="M0 0 C1.32 0.66 2.64 1.32 4 2 C4 3.32 4 4.64 4 6 C3.01 6 2.02 6 1 6 C0.34 4.35 -0.32 2.7 -1 1 C-0.67 0.67 -0.34 0.34 0 0 Z " fill="#262625" transform="translate(190,325)"/>
<path d="M0 0 C0.99 0 1.98 0 3 0 C3 2.31 3 4.62 3 7 C2.01 7 1.02 7 0 7 C0 4.69 0 2.38 0 0 Z " fill="#3E3E3D" transform="translate(242,373)"/>
<path d="M0 0 C1.65 0 3.3 0 5 0 C5.33 1.98 5.66 3.96 6 6 C5.34 6 4.68 6 4 6 C4 5.34 4 4.68 4 4 C2.68 4 1.36 4 0 4 C0 2.68 0 1.36 0 0 Z " fill="#262624" transform="translate(286,373)"/>
<path d="M0 0 C1.32 0 2.64 0 4 0 C4 0.66 4 1.32 4 2 C3.01 2 2.02 2 1 2 C1.33 3.65 1.66 5.3 2 7 C1.01 7 0.02 7 -1 7 C-1.04254356 5.00045254 -1.04080783 2.99958364 -1 1 C-0.67 0.67 -0.34 0.34 0 0 Z " fill="#242422" transform="translate(309,373)"/>
<path d="M0 0 C-0.33 1.65 -0.66 3.3 -1 5 C-2.65 4.67 -4.3 4.34 -6 4 C-6 3.34 -6 2.68 -6 2 C-3 0 -3 0 0 0 Z " fill="#7B7B79" transform="translate(239,373)"/>
<path d="M0 0 C2.31 0 4.62 0 7 0 C7.33 0.99 7.66 1.98 8 3 C5.69 3 3.38 3 1 3 C0.67 2.01 0.34 1.02 0 0 Z " fill="#202020" transform="translate(209,323)"/>
<path d="M0 0 C1.60080151 4.00200378 0.29279692 7.04556236 -1 11 C-1.33 11 -1.66 11 -2 11 C-2 8.03 -2 5.06 -2 2 C-1.34 2 -0.68 2 0 2 C0 1.34 0 0.68 0 0 Z " fill="#1B1B19" transform="translate(204,331)"/>
<path d="M0 0 C2.475 0.495 2.475 0.495 5 1 C4.34 1.66 3.68 2.32 3 3 C2.01 2.01 1.02 1.02 0 0 Z M-4 3 C-1.69 3 0.62 3 3 3 C3 3.99 3 4.98 3 6 C0.69 5.34 -1.62 4.68 -4 4 C-4 3.67 -4 3.34 -4 3 Z " fill="#454545" transform="translate(186,323)"/>
<path d="M0 0 C0.33 0 0.66 0 1 0 C1 2.31 1 4.62 1 7 C0.01 7 -0.98 7 -2 7 C-2 5.35 -2 3.7 -2 2 C-1.34 2 -0.68 2 0 2 C0 1.34 0 0.68 0 0 Z " fill="#3F3F3F" transform="translate(210,374)"/>
<path d="M0 0 C1.65 0.33 3.3 0.66 5 1 C5 1.99 5 2.98 5 4 C4.34 4 3.68 4 3 4 C3 3.34 3 2.68 3 2 C1.35 2.66 -0.3 3.32 -2 4 C-1.34 2.68 -0.68 1.36 0 0 Z " fill="#232321" transform="translate(278,373)"/>
<path d="M0 0 C-0.33 0.66 -0.66 1.32 -1 2 C-3.31 2 -5.62 2 -8 2 C-8 1.34 -8 0.68 -8 0 C-4.71303767 -0.79953138 -3.28976808 -1.09658936 0 0 Z " fill="#1E1E1E" transform="translate(221,361)"/>
</svg>
